<svg width="32" height="32" viewBox="0 0 32 32" fill="none" xmlns="http://www.w3.org/2000/svg">
<g id="logo ">
<g id="Group 191">
<path id="Vector" d="M7.49656 12.1427C7.98728 12.1424 8.47685 12.1901 8.95827 12.2852C9.3352 10.7 10.2363 9.28852 11.5157 8.27943C12.795 7.27035 14.3776 6.72281 16.0071 6.72554C17.6365 6.72826 19.2172 7.28109 20.4932 8.29445C21.7692 9.30781 22.6656 10.7223 23.0372 12.3088C23.9461 12.1104 24.8839 12.0818 25.8032 12.2245C25.3947 9.91672 24.1856 7.82688 22.3884 6.32258C20.5913 4.81828 18.3212 3.99587 15.9776 4.00002C13.6339 4.00416 11.3668 4.83459 9.57499 6.34524C7.78318 7.85589 6.58144 9.95 6.18115 12.2592C6.61541 12.1823 7.05554 12.1433 7.49656 12.1427Z" fill="#41BE60"/>
<path id="Vector_2" d="M29.9663 15.8348V15.8286C29.269 15.1306 28.441 14.5768 27.5295 14.199C26.6181 13.8212 25.6411 13.6267 24.6545 13.6267C23.6678 13.6267 22.6909 13.8212 21.7794 14.199C20.868 14.5768 20.0399 15.1306 19.3426 15.8286L16.0808 19.0917L12.809 15.8286C11.7589 14.78 10.4215 14.0663 8.96581 13.7776C7.51017 13.4889 6.00161 13.6382 4.63079 14.2066C3.25996 14.775 2.08839 15.737 1.26415 16.9711C0.439917 18.2051 0 19.6558 0 21.1398C0 22.6238 0.439917 24.0745 1.26415 25.3086C2.08839 26.5426 3.25996 27.5046 4.63079 28.0731C6.00161 28.6415 7.51017 28.7907 8.96581 28.502C10.4215 28.2133 11.7589 27.4996 12.809 26.451L16.0808 23.1793L19.3426 26.451V26.4572C20.7661 27.7918 22.6528 28.5205 24.6038 28.4891C26.5549 28.4578 28.4172 27.6688 29.797 26.2892C31.1769 24.9095 31.966 23.0473 31.9976 21.0962C32.0292 19.1452 31.3008 17.2584 29.9663 15.8348ZM29.2844 21.1287C29.2844 22.0465 29.0122 22.9438 28.5021 23.7068C27.992 24.4699 27.2671 25.0645 26.4189 25.4155C25.5708 25.7664 24.6376 25.8579 23.7375 25.6783C22.8374 25.4987 22.0108 25.0562 21.3622 24.4066L18.0855 21.1287L21.3622 17.8519C21.7923 17.4184 22.3042 17.0746 22.8682 16.8405C23.4322 16.6064 24.037 16.4867 24.6477 16.4882C25.8775 16.4885 27.0569 16.9773 27.9264 17.847C28.796 18.7168 29.2844 19.8963 29.2844 21.1262V21.1287ZM14.045 21.1287L10.7609 24.3682C10.1132 25.0151 9.28834 25.4554 8.39049 25.6335C7.49265 25.8117 6.56214 25.7197 5.71658 25.3691C4.87102 25.0185 4.14835 24.4252 3.63993 23.664C3.13151 22.9029 2.86015 22.008 2.86015 21.0927C2.86015 20.1774 3.13151 19.2826 3.63993 18.5214C4.14835 17.7602 4.87102 17.1669 5.71658 16.8163C6.56214 16.4658 7.49265 16.3737 8.39049 16.5519C9.28834 16.73 10.1132 17.1704 10.7609 17.8172L14.045 21.1287Z" fill="#0074E8"/>
<path id="Vector_3" d="M16.0696 23.1754L14.045 21.1286L16.0696 19.0879L18.0855 21.1311L16.0696 23.1754Z" fill="white"/>
</g>
</g>
</svg>
